<svg xmlns="http://www.w3.org/2000/svg" width="16" height="16"><g shape-rendering="crispEdges"><path fill="#00b9fd" opacity="253" d="M6 0h1v1H6z"/><path fill="#00b9fd" opacity="255" d="M9 0h1v1H9zM4 1h1v1H4zM6 1h1v1H6z"/><path fill="#009bfd" opacity="255" d="M9 1h1v1H9z"/><path fill="#00b9fd" opacity="255" d="M11 1h1v1h-1zM3 2h1v1H3z"/><path fill="#009bfd" opacity="255" d="M4 2h1v1H4zM6 2h1v1H6z"/><path fill="#0082fd" opacity="255" d="M9 2h1v1H9zM11 2h1v1h-1zM12 2h1v1h-1z"/><path fill="#00b9fd" opacity="255" d="M2 3h1v1H2z"/><path fill="#009bfd" opacity="255" d="M3 3h1v1H3z"/><path fill="#0082fd" opacity="255" d="M4 3h1v1H4zM6 3h1v1H6zM9 3h1v1H9zM11 3h1v1h-1zM12 3h1v1h-1zM13 3h1v1h-1z"/><path fill="#00b9fd" opacity="255" d="M1 4h1v1H1z"/><path fill="#009bfd" opacity="255" d="M2 4h1v1H2z"/><path fill="#0082fd" opacity="255" d="M3 4h1v1H3zM12 4h1v1h-1z"/><path fill="#0053fd" opacity="255" d="M13 4h1v1h-1zM14 4h1v1h-1z"/><path fill="#00b9fd" opacity="255" d="M7 5h1v1H7z"/><path fill="#009bfd" opacity="255" d="M8 5h1v1H8z"/><path fill="#00b8fd" opacity="255" d="M0 6h1v1H0z"/><path fill="#009bfd" opacity="255" d="M1 6h1v1H1zM2 6h1v1H2z"/><path fill="#0082fd" opacity="255" d="M3 6h1v1H3z"/><path fill="#00b9fd" opacity="255" d="M6 6h1v1H6z"/><path fill="#009bfd" opacity="255" d="M7 6h1v1H7zM8 6h1v1H8zM9 6h1v1H9z"/><path fill="#00b9fd" opacity="253" d="M12 6h1v1h-1z"/><path fill="#0082fd" opacity="255" d="M13 6h1v1h-1zM14 6h1v1h-1z"/><path fill="#0053fd" opacity="255" d="M15 6h1v1h-1z"/><path fill="#00b9fd" opacity="255" d="M5 7h1v1H5z"/><path fill="#009bfd" opacity="255" d="M6 7h1v1H6zM7 7h1v1H7z"/><path fill="#0082fd" opacity="255" d="M8 7h1v1H8zM9 7h1v1H9zM10 7h1v1h-1z"/><path fill="#009bfd" opacity="255" d="M5 8h1v1H5zM6 8h1v1H6z"/><path fill="#0082fd" opacity="255" d="M7 8h1v1H7zM8 8h1v1H8z"/><path fill="#0053fd" opacity="255" d="M9 8h1v1H9zM10 8h1v1h-1z"/><path fill="#009bfd" opacity="255" d="M0 9h1v1H0zM1 9h1v1H1z"/><path fill="#0082fd" opacity="255" d="M2 9h1v1H2z"/><path fill="#0053fd" opacity="255" d="M3 9h1v1H3z"/><path fill="#0082fd" opacity="255" d="M6 9h1v1H6zM7 9h1v1H7z"/><path fill="#0053fd" opacity="255" d="M8 9h1v1H8zM9 9h1v1H9z"/><path fill="#0082fd" opacity="255" d="M12 9h1v1h-1zM13 9h1v1h-1z"/><path fill="#0053fd" opacity="255" d="M14 9h1v1h-1zM15 9h1v1h-1zM7 10h1v1H7zM8 10h1v1H8z"/><path fill="#009bfd" opacity="255" d="M1 11h1v1H1zM2 11h1v1H2zM3 11h1v1H3z"/><path fill="#00b9fd" opacity="253" d="M12 11h1v1h-1z"/><path fill="#0082fd" opacity="255" d="M13 11h1v1h-1z"/><path fill="#0053fd" opacity="255" d="M14 11h1v1h-1z"/><path fill="#0082fd" opacity="255" d="M2 12h1v1H2zM3 12h1v1H3zM4 12h1v1H4zM6 12h1v1H6zM9 12h1v1H9z"/><path fill="#00b9fd" opacity="253" d="M11 12h1v1h-1z"/><path fill="#0082fd" opacity="255" d="M12 12h1v1h-1z"/><path fill="#0053fd" opacity="255" d="M13 12h1v1h-1z"/><path fill="#0082fd" opacity="255" d="M3 13h1v1H3z"/><path fill="#0053fd" opacity="255" d="M4 13h1v1H4z"/><path fill="#0082fd" opacity="255" d="M6 13h1v1H6z"/><path fill="#0053fd" opacity="255" d="M9 13h1v1H9z"/><path fill="#0082fd" opacity="255" d="M11 13h1v1h-1z"/><path fill="#0053fd" opacity="255" d="M12 13h1v1h-1zM4 14h1v1H4zM6 14h1v1H6zM9 14h1v1H9zM11 14h1v1h-1zM6 15h1v1H6zM9 15h1v1H9z"/></g></svg>